<svg id="Layer_1" data-name="Layer 1" xmlns="http://www.w3.org/2000/svg" viewBox="0 0 1106.57 88.61"><defs><style>.cls-1{fill:#227364;}.cls-2{fill:#41f2e0;}.cls-3{fill:#dce9f3;}</style></defs><path class="cls-1" d="M0,21.51A3.89,3.89,0,0,0,2.65,24Q25.33,32.42,48,40.92a4.79,4.79,0,0,0,3.57,0q20.49-7.66,41-15.29c.35-.13.72-.25,1.15-.39v1.15q0,19.92,0,39.85A6,6,0,0,1,93.42,68c-1.73,5.26-3.49,10.5-5.24,15.75-.55,1.66-.16,3,1.06,3.77a2.87,2.87,0,0,0,4.1-1c.13-.22.24-.45.36-.7a9.62,9.62,0,0,0,1,1.4,2.85,2.85,0,0,0,4.44-.6l.43-.73v-62h-49c-2.33,0-3.69-1.07-3.69-2.91S48.23,18,50.55,18H96.74a1.1,1.1,0,0,0-.53-.38L51.4.89A4.62,4.62,0,0,0,48,.94Q25.33,9.43,2.65,17.88A3.89,3.89,0,0,0,0,20.35Z"/><path class="cls-1" d="M82.06,35.75l-9.43,3.5C66.3,41.62,60,44,53.63,46.36a10.39,10.39,0,0,1-7.75,0c-9-3.42-18-6.79-27.07-10.18-.33-.12-.66-.22-1.12-.37v1.12c0,4,.11,8,0,12s1.7,6.94,4.85,9.17a33.26,33.26,0,0,0,12.61,5.08A67.37,67.37,0,0,0,68.85,62a25.06,25.06,0,0,0,9.82-5.11,9.39,9.39,0,0,0,3.41-7.42C82,44.92,82.06,40.42,82.06,35.75Z"/><path class="cls-2" d="M176.26,50.84H143.59v20.6h38.59v16H122.81V1.24H182.3v16H143.59V35.46h32.67Z"/><path class="cls-2" d="M262.62,87.42H242L211.42,33.8V87.42H190.65V1.24h20.77l30.49,53.63V1.24h20.71Z"/><path class="cls-2" d="M346.32,76.77q-4.8,5.33-14,8.58a60.51,60.51,0,0,1-20.24,3.26q-16.94,0-27.05-10.36T274.16,49.42L274.11,42q0-12.74,4.49-22.23A33.38,33.38,0,0,1,291.48,5.12,36.42,36.42,0,0,1,310.86,0q16.11,0,25,7.37t10.39,22h-20q-1.06-7.23-4.61-10.3T311.57,16a13.55,13.55,0,0,0-12.07,6.63q-4.26,6.63-4.32,18.94v5.21q0,12.9,4.41,19.39t13.88,6.48q8.1,0,12.07-3.61V55.64H311.1V41.37h35.22Z"/><path class="cls-2" d="M379.17,71.44h36.16v16H358.39V1.24h20.78Z"/><path class="cls-2" d="M446.23,87.42H425.52V1.24h20.71Z"/><path class="cls-2" d="M505.13,64.52a8.52,8.52,0,0,0-3.23-7.1q-3.22-2.55-11.33-5.27a108.55,108.55,0,0,1-13.26-5.27q-16.76-8.24-16.75-22.61a20.28,20.28,0,0,1,4.17-12.64,27,27,0,0,1,11.81-8.52,46,46,0,0,1,17.16-3,40.24,40.24,0,0,1,16.67,3.31,26.4,26.4,0,0,1,11.45,9.44,24.71,24.71,0,0,1,4.08,14H505.19q0-5.26-3.23-8.16t-8.73-2.91q-5.57,0-8.79,2.46a7.55,7.55,0,0,0-3.23,6.25q0,3.32,3.56,6T497.26,36a76.18,76.18,0,0,1,14.67,6.18q14,8.05,14,22.2,0,11.31-8.52,17.76T494,88.61a46.32,46.32,0,0,1-19-3.76,28.66,28.66,0,0,1-12.79-10.3A26.83,26.83,0,0,1,458,59.49h20.84q0,6.91,3.58,10.21T494,73c3.43,0,6.15-.74,8.14-2.22A7.33,7.33,0,0,0,505.13,64.52Z"/><path class="cls-2" d="M608.59,87.42H587.94v-36H557.33v36H536.56V1.24h20.77V35.46h30.61V1.24h20.65Z"/><path class="cls-3" d="M705.07,66.23a13.93,13.93,0,0,0-5-11.33q-5-4.17-18.4-7.93t-19.54-8.2q-8.76-6.27-8.76-16.46a19.29,19.29,0,0,1,8.14-16.07Q669.63.06,682.29.06a34.52,34.52,0,0,1,15.36,3.31,25.12,25.12,0,0,1,10.5,9.24,24.19,24.19,0,0,1,3.73,13.2h-7.34q0-8.85-6-14.22T682.29,6.22q-9.88,0-15.75,4.41a13.78,13.78,0,0,0-5.86,11.53A13,13,0,0,0,666,32.89q5.26,4.15,16.87,7.33t17.58,6.57a25.16,25.16,0,0,1,9,8.14,20.4,20.4,0,0,1,3,11.19,19.48,19.48,0,0,1-8.13,16.33q-8.14,6.17-21.46,6.16a42,42,0,0,1-16.72-3.26,25.63,25.63,0,0,1-11.55-9.11,23.58,23.58,0,0,1-3.93-13.44h7.28q0,9.12,6.81,14.38t18.11,5.27q10.06,0,16.16-4.44A13.88,13.88,0,0,0,705.07,66.23Z"/><path class="cls-3" d="M789.13,60.55q-1.49,13.62-9.74,20.84t-22,7.22a30.38,30.38,0,0,1-17-4.8,31.2,31.2,0,0,1-11.39-13.58A48.31,48.31,0,0,1,725,50.13V39a48.68,48.68,0,0,1,4-20.36A31,31,0,0,1,740.56,4.88,31.59,31.59,0,0,1,757.93.06q13.86,0,21.87,7.46t9.33,20.65h-7.34q-2.73-21.95-23.86-22-11.71,0-18.67,8.76t-7,24.23V49.76q0,14.93,6.78,23.81t18.32,8.88q11.43,0,17.22-5.47t7.17-16.43Z"/><path class="cls-3" d="M870.69,87.42h-7.34V46.11H814.1V87.42h-7.28V1.24h7.28V40h49.25V1.24h7.34Z"/><path class="cls-3" d="M956.28,49a49.79,49.79,0,0,1-4.11,20.89,31.48,31.48,0,0,1-11.75,13.86,32.21,32.21,0,0,1-17.64,4.85q-15.09,0-24.39-10.8T889.1,48.66V39.78a49.53,49.53,0,0,1,4.17-20.87,31.88,31.88,0,0,1,11.81-14,34.32,34.32,0,0,1,35.13-.09A31.52,31.52,0,0,1,952,18.41a48.85,48.85,0,0,1,4.32,20.3ZM949,39.66q0-15.57-7-24.39t-19.3-8.82q-12,0-19.15,8.85T896.38,40v9q0,15.33,7.1,24.3t19.3,9q12.38,0,19.3-8.84T949,48.77Z"/><path class="cls-3" d="M1038.32,49a49.79,49.79,0,0,1-4.11,20.89,31.48,31.48,0,0,1-11.75,13.86,32.21,32.21,0,0,1-17.64,4.85q-15.11,0-24.39-10.8t-9.29-29.15V39.78a49.53,49.53,0,0,1,4.17-20.87,31.88,31.88,0,0,1,11.81-14,34.32,34.32,0,0,1,35.13-.09A31.52,31.52,0,0,1,1034,18.41a48.85,48.85,0,0,1,4.32,20.3ZM1031,39.66q0-15.57-7-24.39t-19.3-8.82q-12,0-19.15,8.85T978.42,40v9q0,15.33,7.1,24.3t19.3,9q12.36,0,19.29-8.84T1031,48.77Z"/><path class="cls-3" d="M1064,81.27h42.56v6.15h-49.9V1.24H1064Z"/></svg>